<?xml version="1.0" encoding="iso-8859-1"?>
<!-- Generator: Adobe Illustrator 19.0.0, SVG Export Plug-In . SVG Version: 6.00 Build 0)  -->
<svg xmlns="http://www.w3.org/2000/svg" xmlns:xlink="http://www.w3.org/1999/xlink" version="1.1" id="Capa_1" x="0px" y="0px" viewBox="0 0 512 512" style="enable-background:new 0 0 512 512;" xml:space="preserve" width="512px" height="512px">
<g>
	<g>
		<path d="M452.085,0H59.915c-4.513,0-8.17,3.658-8.17,8.17v495.66c0,4.512,3.657,8.17,8.17,8.17h392.17    c4.513,0,8.17-3.658,8.17-8.17V8.17C460.255,3.658,456.598,0,452.085,0z M443.915,495.66H68.085v-27.234h375.83V495.66z     M443.915,452.085H68.085V16.34h375.83V452.085z" fill="#8b008b"/>
	</g>
</g>
<g>
	<g>
		<path d="M206.979,201.532c-4.513,0-8.17,3.658-8.17,8.17v49.021c0,4.512,3.657,8.17,8.17,8.17c4.513,0,8.17-3.658,8.17-8.17    v-49.021C215.149,205.19,211.492,201.532,206.979,201.532z" fill="#8b008b"/>
	</g>
</g>
<g>
	<g>
		<path d="M305.021,201.532c-4.513,0-8.17,3.658-8.17,8.17v49.021c0,4.512,3.657,8.17,8.17,8.17c4.513,0,8.17-3.658,8.17-8.17    v-49.021C313.191,205.19,309.534,201.532,305.021,201.532z" fill="#8b008b"/>
	</g>
</g>
<g>
	<g>
		<path d="M419.404,32.681H272.34c-4.513,0-8.17,3.658-8.17,8.17v386.723c0,4.512,3.657,8.17,8.17,8.17h147.064    c4.513,0,8.17-3.658,8.17-8.17V40.851C427.574,36.339,423.917,32.681,419.404,32.681z M411.234,419.404H280.511V49.021h130.723    V419.404z" fill="#8b008b"/>
	</g>
</g>
<g>
	<g>
		<path d="M239.66,32.681H92.596c-4.513,0-8.17,3.658-8.17,8.17v177.021c0,4.512,3.657,8.17,8.17,8.17s8.17-3.658,8.17-8.17V49.021    h130.723v370.383H100.766V250.553c0-4.512-3.657-8.17-8.17-8.17s-8.17,3.658-8.17,8.17v177.021c0,4.512,3.657,8.17,8.17,8.17    H239.66c4.513,0,8.17-3.658,8.17-8.17V40.851C247.83,36.339,244.173,32.681,239.66,32.681z" fill="#8b008b"/>
	</g>
</g>
<g>
</g>
<g>
</g>
<g>
</g>
<g>
</g>
<g>
</g>
<g>
</g>
<g>
</g>
<g>
</g>
<g>
</g>
<g>
</g>
<g>
</g>
<g>
</g>
<g>
</g>
<g>
</g>
<g>
</g>
</svg>
